<svg width="144" height="29" viewBox="0 0 144 29" fill="none" xmlns="http://www.w3.org/2000/svg">
<path d="M40.7696 11.976C40.7696 12.7952 40.5776 13.544 40.1936 14.2224C39.8224 14.888 39.2528 15.4256 38.4848 15.8352C37.7296 16.232 36.8016 16.4304 35.7008 16.4304H33.8384V21H30.0752V7.464H35.7008C36.7888 7.464 37.7104 7.656 38.4656 8.04C39.2336 8.424 39.8096 8.9552 40.1936 9.6336C40.5776 10.312 40.7696 11.0928 40.7696 11.976ZM35.336 13.4352C36.3984 13.4352 36.9296 12.9488 36.9296 11.976C36.9296 10.9904 36.3984 10.4976 35.336 10.4976H33.8384V13.4352H35.336ZM49.1359 21L46.4479 16.008H46.0447V21H42.2815V7.464H48.2143C49.3023 7.464 50.2239 7.656 50.9791 8.04C51.7343 8.4112 52.3039 8.9296 52.6879 9.5952C53.0719 10.248 53.2639 10.984 53.2639 11.8032C53.2639 12.7248 53.0079 13.5376 52.4959 14.2416C51.9967 14.9328 51.2607 15.4256 50.2879 15.72L53.3407 21H49.1359ZM46.0447 13.4352H47.9071C48.4191 13.4352 48.8031 13.3136 49.0591 13.0704C49.3151 12.8272 49.4431 12.4752 49.4431 12.0144C49.4431 11.5792 49.3087 11.24 49.0399 10.9968C48.7839 10.7408 48.4063 10.6128 47.9071 10.6128H46.0447V13.4352ZM58.7384 7.464V21H54.9752V7.464H58.7384ZM60.4207 14.2032C60.4207 12.872 60.6959 11.688 61.2463 10.6512C61.8095 9.6016 62.6031 8.7888 63.6271 8.2128C64.6511 7.624 65.8287 7.3296 67.1599 7.3296C68.8495 7.3296 70.2703 7.784 71.4223 8.6928C72.5743 9.5888 73.3167 10.8112 73.6495 12.36H69.5983C69.3551 11.848 69.0159 11.4576 68.5807 11.1888C68.1583 10.92 67.6655 10.7856 67.1023 10.7856C66.2319 10.7856 65.5343 11.0992 65.0095 11.7264C64.4975 12.3408 64.2415 13.1664 64.2415 14.2032C64.2415 15.2528 64.4975 16.0912 65.0095 16.7184C65.5343 17.3328 66.2319 17.64 67.1023 17.64C67.6655 17.64 68.1583 17.5056 68.5807 17.2368C69.0159 16.968 69.3551 16.5776 69.5983 16.0656H73.6495C73.3167 17.6144 72.5743 18.8432 71.4223 19.752C70.2703 20.648 68.8495 21.096 67.1599 21.096C65.8287 21.096 64.6511 20.808 63.6271 20.232C62.6031 19.6432 61.8095 18.8304 61.2463 17.7936C60.6959 16.744 60.4207 15.5472 60.4207 14.2032ZM79.1947 10.4784V12.6864H83.5147V15.5472H79.1947V17.9856H84.0907V21H75.4315V7.464H84.0907V10.4784H79.1947ZM96.1454 7.464V10.4592H92.5358V21H88.7726V10.4592H85.2014V7.464H96.1454ZM106.101 18.792H101.301L100.571 21H96.6161L101.551 7.464H105.89L110.805 21H106.831L106.101 18.792ZM105.16 15.912L103.701 11.5344L102.261 15.912H105.16ZM120.671 14.0496C121.465 14.2288 122.092 14.6256 122.553 15.24C123.027 15.8416 123.263 16.5328 123.263 17.3136C123.263 18.4656 122.867 19.368 122.073 20.0208C121.279 20.6736 120.166 21 118.732 21H112.031V7.464H118.521C119.903 7.464 120.985 7.7712 121.766 8.3856C122.559 9 122.956 9.864 122.956 10.9776C122.956 11.7712 122.745 12.4368 122.323 12.9744C121.913 13.4992 121.363 13.8576 120.671 14.0496ZM115.795 12.84H117.695C118.643 12.84 119.116 12.4496 119.116 11.6688C119.116 10.8624 118.643 10.4592 117.695 10.4592H115.795V12.84ZM117.983 17.9664C118.931 17.9664 119.404 17.5696 119.404 16.776C119.404 16.3664 119.276 16.0528 119.02 15.8352C118.777 15.6176 118.425 15.5088 117.964 15.5088H115.795V17.9664H117.983ZM128.676 18.12H132.881V21H124.913V7.464H128.676V18.12ZM138.107 10.4784V12.6864H142.427V15.5472H138.107V17.9856H143.003V21H134.344V7.464H143.003V10.4784H138.107Z" fill="#5754F4"/>
<path d="M0 8.86129V20.1064C0 20.9871 0.677419 21.6645 1.55806 21.6645H5.96129V20.3097H1.55806C1.42258 20.3097 1.35484 20.2419 1.35484 20.1064V18.5484H5.96129V17.1935H1.35484V8.86129C1.35484 8.72581 1.42258 8.65806 1.55806 8.65806H5.96129V7.30323H1.55806C0.677419 7.30323 0 7.98064 0 8.86129Z" fill="#5754F4"/>
<path d="M23.6419 20.3097H19.2387V21.6645H23.6419C24.5226 21.6645 25.2 20.9871 25.2 20.1064V8.86129C25.2 7.98064 24.5226 7.30323 23.6419 7.30323H19.2387V8.65806H23.6419C23.7774 8.65806 23.8452 8.72581 23.8452 8.86129V17.1935H19.2387V18.5484H23.8452V20.1064C23.8452 20.2419 23.7774 20.3097 23.6419 20.3097Z" fill="#5754F4"/>
<path d="M17.0032 22.4097C17.0032 22.5452 16.9355 22.6129 16.8 22.6129H10L9.50001 24L16.8 23.9677C17.6806 23.9677 18.3581 23.2903 18.3581 22.4097V10H17.0032V22.4097Z" fill="#5754F4"/>
<path d="M18.3581 6.55806C18.3581 5.67742 17.6807 5 16.8 5H8.40001C7.51937 5 6.84195 5.67742 6.84195 6.55806V22.4774C6.84195 23.3581 7.51937 24.0355 8.40001 24.0355H10.3645V22.6806H8.40001C8.26453 22.6806 8.19679 22.6129 8.19679 22.4774V20.3774H15.9871V19.0226H8.19679V6.55806C8.19679 6.42258 8.26453 6.35484 8.40001 6.35484H16.8C16.9355 6.35484 17.0032 6.42258 17.0032 6.55806V10.0129H18.3581V6.55806Z" fill="#5754F4"/>
</svg>
