<svg viewBox="0 0 26 6" fill="currentColor" xmlns="http://www.w3.org/2000/svg">
<path d="M20 3C20 4.65685 21.3431 6 23 6C24.6569 6 26 4.65685 26 3C26 1.34315 24.6569 -5.87108e-08 23 -1.31134e-07C21.3431 -2.03558e-07 20 1.34315 20 3Z"/>
<path d="M10 3C10 4.65685 11.3431 6 13 6C14.6569 6 16 4.65685 16 3C16 1.34315 14.6569 -5.87108e-08 13 -1.31134e-07C11.3431 -2.03558e-07 10 1.34315 10 3Z"/>
<path d="M-1.31134e-07 3C-2.03558e-07 4.65685 1.34315 6 3 6C4.65685 6 6 4.65685 6 3C6 1.34315 4.65685 -5.87108e-08 3 -1.31134e-07C1.34315 -2.03558e-07 -5.87108e-08 1.34315 -1.31134e-07 3Z"/>
</svg>
