<svg viewBox="0 0 26 26" xmlns="http://www.w3.org/2000/svg">
<g clip-path="url(#clip0_38_878)" fill="currentColor">
  <path d="M19.5 2.16667C21.8898 2.16667 23.8333 4.11017 23.8333 6.5V19.5C23.8333 21.8898 21.8898 23.8333 19.5 23.8333H6.5C4.11017 23.8333 2.16667 21.8898 2.16667 19.5V6.5C2.16667 4.11017 4.11017 2.16667 6.5 2.16667H19.5ZM19.5 0H6.5C2.90983 0 0 2.90983 0 6.5V19.5C0 23.0902 2.90983 26 6.5 26H19.5C23.0902 26 26 23.0902 26 19.5V6.5C26 2.90983 23.0902 0 19.5 0Z" />
  <path d="M13 19.5C12.402 19.5 11.9167 19.0158 11.9167 18.4167V7.58333C11.9167 6.98533 12.402 6.5 13 6.5C13.598 6.5 14.0833 6.98533 14.0833 7.58333V18.4167C14.0833 19.0158 13.598 19.5 13 19.5Z" />
  <path d="M6.5 13C6.5 12.402 6.98425 11.9166 7.58333 11.9166H18.4167C19.0147 11.9166 19.5 12.402 19.5 13C19.5 13.598 19.0147 14.0833 18.4167 14.0833H7.58333C6.98425 14.0833 6.5 13.598 6.5 13Z" />
</g>
<defs>
  <clipPath id="clip0_38_878">
    <rect width="26" height="26"/>
  </clipPath>
</defs>
</svg>